<svg width="56" height="56" viewBox="0 0 56 56" fill="none" xmlns="http://www.w3.org/2000/svg">
<g clip-path="url(#clip0_37946_283)" filter="url(#filter0_d_37946_283)">
<path d="M49.3492 26.4414C51.0849 23.6908 51.9997 20.5243 51.9997 17.2499C51.9997 7.73831 44.2614 0 34.7498 0C31.5638 0 28.4509 0.875719 25.7479 2.53247C25.3065 2.80303 25.1679 3.38016 25.4386 3.82162C25.709 4.263 26.2862 4.40166 26.7277 4.131C29.1358 2.65509 31.9098 1.875 34.7499 1.875C43.2276 1.875 50.1248 8.77209 50.1248 17.2499C50.1248 20.3246 49.2204 23.2919 47.5092 25.8309C47.2822 26.1677 47.3016 26.6031 47.5352 26.9157L48.5625 30.7497L44.439 29.6448C44.1689 29.5724 43.8806 29.6242 43.6528 29.7864C41.043 31.6434 37.9644 32.6249 34.7499 32.6249C32.9187 32.6249 31.1276 32.305 29.4242 31.6757C28.225 27.2596 24.7406 23.7751 20.3245 22.576C19.6951 20.8726 19.375 19.0818 19.375 17.25C19.375 14.3784 20.1714 11.578 21.6782 9.1515C21.9513 8.71162 21.8161 8.13366 21.3762 7.86047C20.9365 7.58738 20.3583 7.72247 20.0852 8.16244C18.3938 10.8863 17.4999 14.0287 17.4999 17.25C17.4999 18.9363 17.742 20.5921 18.2192 22.1887C17.7974 22.1471 17.3699 22.1253 16.9374 22.1253C9.80369 22.1253 4 27.9291 4 35.0627C4 37.6229 4.74025 40.0806 6.14481 42.1991L5.1415 45.944C5.05478 46.2675 5.14731 46.6127 5.38412 46.8496C5.62094 47.0864 5.96603 47.1788 6.28966 47.0922L10.1273 46.0639C12.1711 47.3317 14.5163 48 16.9374 48C19.4016 48 21.7985 47.3044 23.869 45.9883C24.306 45.7105 24.435 45.1312 24.1573 44.6942C23.8795 44.2572 23.2999 44.1282 22.8632 44.4059C21.0937 45.5306 19.0448 46.125 16.9374 46.125C14.7437 46.125 12.6233 45.4839 10.8058 44.271C10.5814 44.1213 10.3035 44.0753 10.0428 44.1453L7.37275 44.8607L8.06781 42.2667C8.14028 41.9963 8.08806 41.7075 7.92541 41.4796C6.58394 39.5993 5.87491 37.3804 5.87491 35.0625C5.87491 28.9627 10.8376 24.0001 16.9373 24.0001C23.0371 24.0001 27.9998 28.9628 27.9998 35.0626C27.9998 36.3653 27.7758 37.6402 27.3341 38.852C27.1567 39.3383 27.4073 39.8765 27.8938 40.0538C28.3802 40.2311 28.9184 39.9806 29.0957 39.4942C29.6127 38.076 29.8748 36.585 29.8748 35.0626C29.8748 34.6301 29.8531 34.2027 29.8114 33.781C31.4082 34.2581 33.0642 34.4998 34.7499 34.4998C38.2069 34.4998 41.5243 33.4877 44.373 31.5682L49.6457 32.981C49.9694 33.0677 50.3144 32.9752 50.5513 32.7383C50.7881 32.5015 50.8806 32.1563 50.7939 31.8327L49.3492 26.4414Z" fill="#FF3F3A"/>
<path d="M39.5824 19.2461H30.0337C29.5159 19.2461 29.0962 19.6658 29.0962 20.1836C29.0962 23.3331 31.6586 25.8955 34.8081 25.8955C37.9576 25.8955 40.52 23.3331 40.52 20.1836C40.5199 19.6658 40.1001 19.2461 39.5824 19.2461ZM34.8081 24.0204C33.0158 24.0204 31.5065 22.785 31.0871 21.121H38.5292C38.1096 22.785 36.6003 24.0204 34.8081 24.0204Z" fill="#FF3F3A"/>
<path d="M42.1075 14.0455C41.8358 13.6046 41.2582 13.4675 40.8176 13.739L40.6953 13.8145C40.2549 14.0867 40.1184 14.6643 40.3906 15.1048C40.5679 15.3918 40.8749 15.5497 41.189 15.5497C41.3571 15.5497 41.5274 15.5045 41.6809 15.4096L41.801 15.3354C42.2418 15.0638 42.3791 14.4863 42.1075 14.0455Z" fill="#FF3F3A"/>
<path d="M29.2266 14.0454C28.955 13.6046 28.3773 13.4675 27.9367 13.739L27.8145 13.8145C27.374 14.0867 27.2375 14.6644 27.5098 15.1048C27.6871 15.3918 27.994 15.5496 28.3082 15.5496C28.4763 15.5496 28.6465 15.5044 28.8001 15.4095L28.9202 15.3353C29.361 15.0637 29.4982 14.4862 29.2266 14.0454Z" fill="#FF3F3A"/>
<path d="M12.4431 34.3997C12.2687 34.2253 12.0268 34.125 11.7803 34.125C11.5337 34.125 11.2919 34.2253 11.1175 34.3997C10.9431 34.5741 10.8428 34.8159 10.8428 35.0625C10.8428 35.3091 10.9431 35.5509 11.1175 35.7253C11.2918 35.8997 11.5337 36 11.7803 36C12.0268 36 12.2687 35.8997 12.4431 35.7253C12.6175 35.5509 12.7178 35.3091 12.7178 35.0625C12.7178 34.8159 12.6175 34.5741 12.4431 34.3997Z" fill="#FF3F3A"/>
<path d="M17.5993 34.3997C17.425 34.2253 17.1831 34.125 16.9365 34.125C16.69 34.125 16.4482 34.2253 16.2737 34.3997C16.0993 34.5741 15.999 34.8159 15.999 35.0625C15.999 35.3091 16.0993 35.5509 16.2737 35.7253C16.4481 35.8997 16.69 36 16.9365 36C17.1831 36 17.425 35.8997 17.5993 35.7253C17.7737 35.5509 17.874 35.3091 17.874 35.0625C17.874 34.8159 17.7737 34.5741 17.5993 34.3997Z" fill="#FF3F3A"/>
<path d="M22.7566 34.3997C22.5822 34.2253 22.3403 34.125 22.0938 34.125C21.8472 34.125 21.6054 34.2253 21.4309 34.3997C21.2566 34.5741 21.1562 34.8159 21.1562 35.0625C21.1562 35.3091 21.2566 35.5509 21.4309 35.7253C21.6053 35.8997 21.8472 36 22.0938 36C22.3403 36 22.5822 35.8997 22.7566 35.7253C22.9309 35.5509 23.0312 35.3091 23.0312 35.0625C23.0312 34.8159 22.9309 34.5741 22.7566 34.3997Z" fill="#FF3F3A"/>
<path d="M26.9529 41.9182C26.7785 41.7439 26.5366 41.6436 26.29 41.6436C26.0425 41.6436 25.8016 41.7439 25.6272 41.9182C25.4529 42.0926 25.3525 42.3345 25.3525 42.5811C25.3525 42.8276 25.4529 43.0695 25.6272 43.2439C25.8016 43.4182 26.0425 43.5186 26.29 43.5186C26.5366 43.5186 26.7785 43.4182 26.9529 43.2439C27.1272 43.0695 27.2275 42.8276 27.2275 42.5811C27.2275 42.3345 27.1272 42.0926 26.9529 41.9182Z" fill="#FF3F3A"/>
<path d="M23.9099 5.0218C23.7355 4.84742 23.4936 4.74805 23.2471 4.74805C22.9996 4.74805 22.7586 4.84742 22.5843 5.0218C22.4089 5.19711 22.3096 5.43805 22.3096 5.68555C22.3096 5.93211 22.4089 6.17398 22.5843 6.34836C22.7586 6.52273 22.9995 6.62211 23.2471 6.62211C23.4936 6.62211 23.7355 6.52273 23.9099 6.34836C24.0843 6.17398 24.1846 5.93211 24.1846 5.68555C24.1846 5.43805 24.0843 5.19711 23.9099 5.0218Z" fill="#FF3F3A"/>
</g>
<defs>
<filter id="filter0_d_37946_283" x="0" y="0" width="56" height="56" filterUnits="userSpaceOnUse" color-interpolation-filters="sRGB">
<feFlood flood-opacity="0" result="BackgroundImageFix"/>
<feColorMatrix in="SourceAlpha" type="matrix" values="0 0 0 0 0 0 0 0 0 0 0 0 0 0 0 0 0 0 127 0" result="hardAlpha"/>
<feOffset dy="4"/>
<feGaussianBlur stdDeviation="2"/>
<feComposite in2="hardAlpha" operator="out"/>
<feColorMatrix type="matrix" values="0 0 0 0 0 0 0 0 0 0 0 0 0 0 0 0 0 0 0.25 0"/>
<feBlend mode="normal" in2="BackgroundImageFix" result="effect1_dropShadow_37946_283"/>
<feBlend mode="normal" in="SourceGraphic" in2="effect1_dropShadow_37946_283" result="shape"/>
</filter>
<clipPath id="clip0_37946_283">
<rect width="48" height="48" fill="white" transform="translate(4)"/>
</clipPath>
</defs>
</svg>
